<svg id="visual" viewBox="0 0 900 600" width="900" height="600" xmlns="http://www.w3.org/2000/svg" xmlns:xlink="http://www.w3.org/1999/xlink" version="1.1"><path d="M0 85L13.7 77C27.3 69 54.7 53 82 46C109.3 39 136.7 41 163.8 48C191 55 218 67 245.2 72C272.3 77 299.7 75 327 74C354.3 73 381.7 73 409 69C436.3 65 463.7 57 491 57C518.3 57 545.7 65 573 71C600.3 77 627.7 81 654.8 86C682 91 709 97 736.2 93C763.3 89 790.7 75 818 69C845.3 63 872.7 65 886.3 66L900 67L900 0L886.3 0C872.7 0 845.3 0 818 0C790.7 0 763.3 0 736.2 0C709 0 682 0 654.8 0C627.7 0 600.3 0 573 0C545.7 0 518.3 0 491 0C463.7 0 436.3 0 409 0C381.7 0 354.3 0 327 0C299.7 0 272.3 0 245.2 0C218 0 191 0 163.8 0C136.7 0 109.3 0 82 0C54.7 0 27.3 0 13.7 0L0 0Z" fill="#6198ff"></path><path d="M0 217L13.7 235C27.3 253 54.7 289 82 299C109.3 309 136.7 293 163.8 276C191 259 218 241 245.2 238C272.3 235 299.7 247 327 251C354.3 255 381.7 251 409 236C436.3 221 463.7 195 491 187C518.3 179 545.7 189 573 205C600.3 221 627.7 243 654.8 252C682 261 709 257 736.2 258C763.3 259 790.7 265 818 256C845.3 247 872.7 223 886.3 211L900 199L900 65L886.3 64C872.7 63 845.3 61 818 67C790.7 73 763.3 87 736.2 91C709 95 682 89 654.8 84C627.7 79 600.3 75 573 69C545.7 63 518.3 55 491 55C463.7 55 436.3 63 409 67C381.7 71 354.3 71 327 72C299.7 73 272.3 75 245.2 70C218 65 191 53 163.8 46C136.7 39 109.3 37 82 44C54.7 51 27.3 67 13.7 75L0 83Z" fill="#3c80ff"></path><path d="M0 337L13.7 356C27.3 375 54.7 413 82 412C109.3 411 136.7 371 163.8 343C191 315 218 299 245.2 304C272.3 309 299.7 335 327 346C354.3 357 381.7 353 409 333C436.3 313 463.7 277 491 269C518.3 261 545.7 281 573 309C600.3 337 627.7 373 654.8 374C682 375 709 341 736.2 334C763.3 327 790.7 347 818 357C845.3 367 872.7 367 886.3 367L900 367L900 197L886.3 209C872.7 221 845.3 245 818 254C790.7 263 763.3 257 736.2 256C709 255 682 259 654.8 250C627.7 241 600.3 219 573 203C545.7 187 518.3 177 491 185C463.7 193 436.3 219 409 234C381.7 249 354.3 253 327 249C299.7 245 272.3 233 245.2 236C218 239 191 257 163.8 274C136.7 291 109.3 307 82 297C54.7 287 27.3 251 13.7 233L0 215Z" fill="#0066ff"></path><path d="M0 379L13.7 398C27.3 417 54.7 455 82 461C109.3 467 136.7 441 163.8 424C191 407 218 399 245.2 407C272.3 415 299.7 439 327 448C354.3 457 381.7 451 409 431C436.3 411 463.7 377 491 363C518.3 349 545.7 355 573 385C600.3 415 627.7 469 654.8 478C682 487 709 451 736.2 441C763.3 431 790.7 447 818 448C845.3 449 872.7 435 886.3 428L900 421L900 365L886.3 365C872.7 365 845.3 365 818 355C790.7 345 763.3 325 736.2 332C709 339 682 373 654.8 372C627.7 371 600.3 335 573 307C545.7 279 518.3 259 491 267C463.7 275 436.3 311 409 331C381.7 351 354.3 355 327 344C299.7 333 272.3 307 245.2 302C218 297 191 313 163.8 341C136.7 369 109.3 409 82 410C54.7 411 27.3 373 13.7 354L0 335Z" fill="#0059dd"></path><path d="M0 601L13.7 601C27.3 601 54.7 601 82 601C109.3 601 136.7 601 163.8 601C191 601 218 601 245.2 601C272.3 601 299.7 601 327 601C354.3 601 381.7 601 409 601C436.3 601 463.7 601 491 601C518.3 601 545.7 601 573 601C600.3 601 627.7 601 654.8 601C682 601 709 601 736.2 601C763.3 601 790.7 601 818 601C845.3 601 872.7 601 886.3 601L900 601L900 419L886.3 426C872.7 433 845.3 447 818 446C790.7 445 763.3 429 736.2 439C709 449 682 485 654.8 476C627.7 467 600.3 413 573 383C545.7 353 518.3 347 491 361C463.7 375 436.3 409 409 429C381.7 449 354.3 455 327 446C299.7 437 272.3 413 245.2 405C218 397 191 405 163.8 422C136.7 439 109.3 465 82 459C54.7 453 27.3 415 13.7 396L0 377Z" fill="#004cbb"></path></svg>